<?xml version="1.0" encoding="utf-8"?>
<!-- Generator: Adobe Illustrator 27.3.1, SVG Export Plug-In . SVG Version: 6.00 Build 0)  -->
<svg version="1.1" id="Layer_1" xmlns="http://www.w3.org/2000/svg" xmlns:xlink="http://www.w3.org/1999/xlink" x="0px" y="0px"
	 viewBox="0 0 1000 1000" style="enable-background:new 0 0 1000 1000;" xml:space="preserve">
<style type="text/css">
	.st0{fill:#FFFFFF;}
</style>
<g>
	<g>
		<path class="st0" d="M122.2,453.4c-22.6,22.6-49.9,33.8-81.8,33.8l-22.7,0.3c0-38.7,0-77.4,0-116s0-77.1,0-115.7h22.7
			c32,0,59.2,11.4,81.9,33.9c22.7,22.7,33.9,49.9,33.9,81.9S145,430.8,122.2,453.4z M97.3,330.4c-9-12.1-20.3-20.3-34.1-25.1
			c0,11.1,0,22.2,0,33.2c0,11.1,0,22.2,0,33.2s0,22.2,0,33.2s0,22.2,0,33.2c14.3-4.9,25.8-13.5,34.5-25.7s13-25.8,13-40.7
			C110.6,356.2,106.3,342.4,97.3,330.4z"/>
		<path class="st0" d="M247.9,487.4c-24.4-0.3-45.3-9-62.6-26.2c-17.3-17.3-25.8-38-25.8-62.3c0-15.7,3.8-30.2,11.4-43.2
			c7.6-13,17.5-23.6,29.9-31.4c-1.1-2.9-2-5.9-2.5-9c-0.7-2.9-1-6-1-9.3c0-13.9,4.9-25.7,14.9-35.6s21.9-14.9,35.9-14.9h25.2v45.6
			H248c-1.7,0-2.9,0.6-3.8,1.5c-0.8,1.1-1.3,2.2-1.3,3.5c0,0.3,0,0.4,0,0.7c0.1,1.1,0.7,2,1.5,2.8c0.8,0.8,2,1.3,3.5,1.3h25.2v45.6
			h-30.6c-10.4,1.3-19.4,5.9-26.6,13.9c-7.3,8-10.9,17.4-10.9,28.2c0,11.6,4.2,21.7,12.8,30.2c8.6,8.4,18.7,12.6,30.3,12.6h25.2V487
			h-25.5V487.4z"/>
		<path class="st0" d="M391.8,255.6h45.3v107.1c0,34.2-12.2,63.5-36.6,87.9s-53.7,36.5-87.9,36.5h-26.2V255.6h45.3v183.7
			c17.7-4.5,32.1-13.9,43.2-28c11.2-14.3,16.7-30.4,16.7-48.5V255.6H391.8z"/>
		<path class="st0" d="M483.2,483c-4.8,4.8-10.5,7.2-17.4,7.2s-12.6-2.4-17.5-7.2s-7.3-10.5-7.3-17.4c0-6.9,2.4-12.6,7.3-17.4
			c4.9-4.8,10.8-7.2,17.5-7.2c6.9,0,12.6,2.4,17.4,7.2c4.8,4.8,7.2,10.5,7.2,17.4C490.4,472.3,488,478.1,483.2,483z"/>
	</g>
	<g>
		<path class="st0" d="M15.2,744.1V512.7h45.6V744H15.2V744.1z"/>
		<path class="st0" d="M175.8,744.1V637.2c0-18.1-5.5-34.2-16.5-48.5c-11.1-14.3-25.4-23.6-43.1-28v183.4H70.8V512.7
			c14.7,0,28.6,0.6,41.7,1.5c13,1.1,25.9,4.6,38.7,10.8c4.1,2.1,8.1,4.5,12.3,7c4.2,2.5,8.3,5.5,12.3,9v-28.3h45.6V744h-45.6V744.1z
			"/>
		<path class="st0" d="M275,558v84.8h63.5v45.3H275V744h-45.3V512.7h131.8V558H275z"/>
		<path class="st0" d="M442.6,744.1c-13.9,0-25.8-4.9-35.8-14.9c-10-10-15-21.7-15-35.6c0-3.2,0.3-6.3,1-9.4c0.7-3.1,1.5-6,2.5-8.8
			C383,667.5,373,657,365.4,644c-7.6-13-11.4-27.5-11.4-43.2c0-24.3,8.6-45,25.8-62.3c17.3-17.3,38-25.8,62.6-25.8h25.2V558h-25.2
			c-11.6,0-21.7,4.2-30.3,12.5s-12.8,18.4-12.8,30.3c0,11.1,3.6,20.9,10.8,29.5c7.3,8.6,16.1,12.9,26.8,12.9h30.6v45.3h-25.2
			c-0.3,0-0.6,0-1.1,0s-1,0.1-1.4,0.3c-0.7,0.3-1.3,0.7-2,1.4s-1,1.8-1,3.4c0,1.3,0.6,2.4,1.5,3.5c1.1,1.1,2.4,1.5,3.8,1.5h25.2
			v45.3h-24.8V744.1z"/>
		<path class="st0" d="M579.7,744.4L521.4,671v73.3h-45.6V512.7h23c27.2,0,48.8,9.1,64.7,27.5c15.8,18.2,23.8,38.7,23.8,61.3
			c0,9.5-1.5,19.1-4.6,28.3c-3.1,9.4-8,18.1-14.9,26.2l70.5,88.4L579.7,744.4L579.7,744.4z M536.5,620c3.5-6.6,5.2-13.5,4.9-20.5
			c0-0.4,0-0.8,0-1.1c0-0.3,0-0.7,0-1.1c-0.4-6.2-2.2-12.2-5.6-18.1c-3.4-5.9-8.1-10.7-14.6-14.6v72.1
			C527.8,632.2,532.9,626.6,536.5,620z"/>
		<path class="st0" d="M745.9,744.1V637.2c0-18.1-5.5-34.2-16.5-48.5c-11.1-14.3-25.4-23.6-43.1-28v183.4H641V512.7
			c14.7,0,28.6,0.6,41.7,1.5c13,1.1,25.9,4.6,38.7,10.8c4.1,2.1,8.1,4.5,12.3,7c4.2,2.5,8.3,5.5,12.3,9v-28.3h45.4V744h-45.6V744.1z
			"/>
		<path class="st0" d="M957.6,664c-18.1,18.1-40,27.1-65.8,27.1c-25.5,0-47.4-9-65.6-27.1c-18.2-18.1-27.3-40-27.3-65.8
			c0-25.5,9.1-47.4,27.3-65.6c18.2-18.2,40.1-27.3,65.6-27.3s47.4,9,65.6,27.1c18.2,18.1,27.3,40,27.3,65.8
			C984.6,624,975.5,645.9,957.6,664z M804,744.1v-45.3h175.9v45.3H804z M924.7,563.3c-9.7-7.7-20.3-11.6-32.1-11.6
			c-0.3,0-0.4,0-0.4,0c-0.1,0-0.3,0-0.4,0c-11.6,0-22.4,3.9-32.4,11.6c-10,7.7-14.9,19.4-14.9,34.9c0,15.7,4.9,27.5,14.9,35.5
			c10,7.9,20.8,11.8,32.7,11.8c11.9,0,22.7-3.9,32.5-11.8c9.8-7.9,14.7-19.6,14.7-35.5C939.3,582.7,934.4,571,924.7,563.3z"/>
	</g>
</g>
</svg>
